# xmcd
#
# Track frame offsets: 
#        150
#        14138
#        28028
#        43249
#        58380
#        71608
#        83811
#        95340
#        109553
#        122077
#        132342
#        145804
#
# Disc length: 2140 seconds
#
# Revision: 0
# Processed by: cddbd v1.5.2PL0 Copyright (c) Steve Scherf et al.
# Submitted via: ExactAudioCopy v0.99pb4
#
DISCID=ae085a0c
DTITLE=Muddy Waters - Master of the Blues
DYEAR=1900
DGENRE=Blues
TTITLE0=I Be's Troubled
TTITLE1=Take a Walk With Me
TTITLE2=I Be Bound to Write You
TTITLE3=You're Gonna Miss Me When I'm Gone
TTITLE4=Walking Blues
TTITLE5=I Can't Be Satisfied
TTITLE6=Gypsy Woman
TTITLE7=I Feel Like Going Home
TTITLE8=Train Fair Blues
TTITLE9=Mean Red Spider
TTITLE10=Rollin' and Tumblin'
TTITLE11=Streamline Woman
EXTD=
EXTT0=
EXTT1=
EXTT2=
EXTT3=
EXTT4=
EXTT5=
EXTT6=
EXTT7=
EXTT8=
EXTT9=
EXTT10=
EXTT11=
PLAYORDER=
